<?xml version="1.0" encoding="UTF-8" standalone="no"?>
<!-- Created with Inkscape (http://www.inkscape.org/) -->

<svg
   width="512"
   height="512"
   viewBox="0 0 512 512"
   version="1.1"
   id="svg1"
   xml:space="preserve"
   inkscape:version="1.3.2 (091e20ef0f, 2023-11-25, custom)"
   sodipodi:docname="pear.svg"
   xmlns:inkscape="http://www.inkscape.org/namespaces/inkscape"
   xmlns:sodipodi="http://sodipodi.sourceforge.net/DTD/sodipodi-0.dtd"
   xmlns:xlink="http://www.w3.org/1999/xlink"
   xmlns="http://www.w3.org/2000/svg"
   xmlns:svg="http://www.w3.org/2000/svg"><sodipodi:namedview
     id="namedview1"
     pagecolor="#505050"
     bordercolor="#eeeeee"
     borderopacity="1"
     inkscape:showpageshadow="0"
     inkscape:pageopacity="0"
     inkscape:pagecheckerboard="0"
     inkscape:deskcolor="#505050"
     inkscape:document-units="px"
     inkscape:zoom="1.2102885"
     inkscape:cx="137.98363"
     inkscape:cy="258.2029"
     inkscape:window-width="1904"
     inkscape:window-height="1047"
     inkscape:window-x="6"
     inkscape:window-y="23"
     inkscape:window-maximized="0"
     inkscape:current-layer="layer1" /><defs
     id="defs1" /><g
     inkscape:label="Layer 1"
     inkscape:groupmode="layer"
     id="layer1"><image
       width="511.54813"
       height="511.54813"
       preserveAspectRatio="none"
       xlink:href="../Downloads/pear.avif"
       id="image1"
       x="0"
       y="0"
       style="display:none" /><g
       id="g2"
       inkscape:label="Pear"
       style="display:inline"><path
         style="display:inline;fill:#6c6300;fill-opacity:0.463581;stroke:#9a8400;stroke-width:0.451;stroke-opacity:0.735815"
         d="m 296.42922,115.86973 c -5.73839,-23.293803 -16.25134,-75.416009 -58.88445,-58.358936 -5.99582,2.460625 -4.84239,10.937693 3.84994,11.310701 34.37177,0.839495 33.03331,30.388682 40.40196,52.777915 8.71339,7.93338 13.46966,5.71236 14.63255,-5.72968 z"
         id="path2"
         sodipodi:nodetypes="ccccc"
         inkscape:label="Stem" /><path
         style="fill:#006300;fill-opacity:0.553119;stroke:#003200;stroke-width:0.451;stroke-opacity:0.438965"
         d="m 288.74396,121.8215 c 13.53759,-16.82185 42.92842,-3.4618 48.11276,7.14428 15.30002,16.57262 28.32341,53.17491 41.89334,84.96876 75.68328,53.4548 80.45721,162.23912 -12.0855,229.2223 -44.16753,23.9305 -86.34159,-1.0124 -140.72177,0 -78.42849,-4.17242 -120.26113,-142.26123 -22.33366,-227.61718 13.76649,-30.75409 23.57347,-72.04345 40.52315,-86.42449 11.64268,-11.73609 29.09856,-7.29164 44.61168,-7.29367 z"
         id="path1"
         sodipodi:nodetypes="cccccccc"
         inkscape:label="Body" /></g><ellipse
       style="fill:#006300;fill-opacity:0.553119;stroke:#9a8400;stroke-width:0.451;stroke-opacity:0.735815"
       id="path3"
       cx="241.55438"
       cy="284.76416"
       rx="47.382572"
       ry="24.752857" /><ellipse
       style="fill:#006300;fill-opacity:0.553119;stroke:#9a8400;stroke-width:0.451;stroke-opacity:0.735815"
       id="path4"
       cx="356.65411"
       cy="289.75839"
       rx="24.039551"
       ry="47.162464" /><path
       style="fill:#ffffff;fill-opacity:0.553119;stroke:#9a8400;stroke-width:0.451;stroke-opacity:0.735815"
       d="m 334.74374,309.16362 c 14.54289,-16.26847 29.14085,-18.54362 43.82074,0 -5.0516,18.15863 -12.28023,27.70702 -21.91037,27.75724 -8.67665,-1.58696 -16.6972,-6.83635 -21.91037,-27.75724 z"
       id="path6"
       sodipodi:nodetypes="cccc" /><path
       style="fill:#ffffff;fill-opacity:0.553119;stroke:#9a8400;stroke-width:0.451;stroke-opacity:0.735815"
       d="m 194.17181,284.76416 c 12.15665,-16.55488 76.83235,-19.39111 94.76514,0 -3.913,14.8268 -18.09815,23.9683 -47.38257,24.75286 -34.6513,-0.97689 -47.86261,-16.50655 -47.38257,-24.75286 z"
       id="path7"
       sodipodi:nodetypes="cccc" /><path
       style="fill:#ffffff;fill-opacity:0.553119;stroke:#9a8400;stroke-width:0.451;stroke-opacity:0.735815"
       d="m 191.57222,354.40104 c -2.78405,53.81872 83.13414,46.60786 84.37805,46.51494 32.83643,2.11639 54.04512,-13.07891 67.71299,-39.50116 z"
       id="path8"
       sodipodi:nodetypes="cccc" /><path
       style="fill:#ffffff;fill-opacity:0.553119;stroke:#9a8400;stroke-width:0.205919;stroke-opacity:0.735815"
       d="m 155.81533,173.77609 h 20.69802 c -5.37384,-31.04209 3.26966,-51.39275 47.47434,-44.61986 v -14.51564 c -50.45893,-5.82615 -70.7977,16.08209 -68.17236,59.1355 z"
       id="path9"
       sodipodi:nodetypes="ccccc" /><path
       style="fill:#ffffff;fill-opacity:0.553119;stroke:#9a8400;stroke-width:0.451;stroke-opacity:0.735815"
       d="M 44.477836,160.17107 H 88.426394 C 77.016009,90.042053 95.368954,44.066678 189.22976,59.367713 V 26.574559 C 82.089166,13.412378 38.90338,62.906573 44.477836,160.17107 Z"
       id="path9-2"
       sodipodi:nodetypes="ccccc" /><path
       style="fill:#ffffff;fill-opacity:0.553119;stroke:#9a8400;stroke-width:0.247434;stroke-opacity:0.735815"
       d="m 114.79897,160.27284 h 22.62906 c -5.8752,-40.99599 3.57471,-67.872257 51.90352,-58.92759 V 82.175046 C 134.16499,74.480702 111.92869,103.414 114.79897,160.27284 Z"
       id="path9-2-3"
       sodipodi:nodetypes="ccccc" /></g></svg>
